<svg xmlns="http://www.w3.org/2000/svg" viewBox="0 0 473.09 473.09"><defs><style>.cls-1{fill:#fff;}</style></defs><title>codepen-logo</title><g id="Layer_2" data-name="Layer 2"><g id="Layer_1-2" data-name="Layer 1"><polygon class="cls-1" points="115.43 215.51 115.43 257.58 146.88 236.55 115.43 215.51"/><polygon class="cls-1" points="223.98 184.98 223.98 126.35 125.49 192 169.48 221.43 223.98 184.98"/><polygon class="cls-1" points="347.61 192 249.12 126.35 249.12 184.98 303.61 221.43 347.61 192"/><polygon class="cls-1" points="125.49 281.1 223.98 346.75 223.98 288.12 169.48 251.68 125.49 281.1"/><polygon class="cls-1" points="249.12 288.12 249.12 346.75 347.61 281.1 303.61 251.68 249.12 288.12"/><polygon class="cls-1" points="236.55 206.81 192.09 236.55 236.55 266.29 281.01 236.55 236.55 206.81"/><path class="cls-1" d="M236.55,0C105.91,0,0,105.9,0,236.55S105.91,473.09,236.55,473.09s236.55-105.9,236.55-236.55S367.19,0,236.55,0ZM382.81,281.11a12.37,12.37,0,0,1-.11,1.65c0,.18-.07.36-.1.54-.07.35-.13.71-.22,1.05s-.13.41-.2.61-.2.62-.32.92-.19.41-.28.61-.27.56-.43.84-.24.38-.36.58-.34.52-.53.76-.28.37-.43.55-.4.46-.62.68-.33.34-.5.49-.47.41-.71.6-.37.29-.57.43l-.21.15L243.52,380.7a12.55,12.55,0,0,1-13.95,0L95.88,291.57l-.2-.15c-.2-.14-.38-.28-.57-.43s-.48-.39-.71-.6-.34-.32-.5-.49-.42-.45-.63-.68-.29-.35-.43-.55-.36-.5-.53-.76-.25-.38-.36-.58-.29-.55-.43-.84-.19-.4-.28-.61-.23-.62-.32-.92-.14-.4-.2-.61-.15-.7-.22-1.05c0-.18-.08-.36-.1-.54a12.44,12.44,0,0,1-.12-1.65V192a12.22,12.22,0,0,1,.12-1.64c0-.18.07-.36.1-.55.07-.35.13-.71.22-1.05s.13-.41.2-.61.2-.62.32-.92.18-.42.28-.62.27-.56.43-.83.23-.39.36-.59.34-.52.53-.76l.43-.55c.2-.23.41-.46.63-.68s.33-.34.5-.49.47-.41.71-.6l.57-.43.2-.15L229.57,92.4a12.57,12.57,0,0,1,13.95,0l133.69,89.13.21.15c.2.14.38.28.57.43s.49.39.71.6.33.32.5.49.43.45.62.68.3.36.43.55.36.5.53.76.25.38.36.59.29.55.43.83.2.41.28.62.22.61.32.92.14.4.2.61.15.7.22,1.05c0,.18.07.36.1.55a12.15,12.15,0,0,1,.11,1.64Z"/><polygon class="cls-1" points="357.67 257.58 357.67 215.51 326.22 236.55 357.67 257.58"/></g></g></svg>