<svg xmlns="http://www.w3.org/2000/svg" viewBox="0 0 103.31 158.46"><defs><style>.cls-1{fill:#490a3c;}.cls-2{fill:#899c3b;}.cls-3{fill:#bd1e52;}.cls-4{fill:#e88024;}</style></defs><title>el-logo-bright</title><g id="Layer_2" data-name="Layer 2"><g id="Layer_1-2" data-name="Layer 1"><polygon class="cls-1" points="25.83 55.18 16.11 49.56 0.01 58.62 17.93 68.97 25.83 73.54 25.83 55.18"/><polygon class="cls-1" points="25.83 99.36 16.11 93.75 0.01 102.81 3.06 104.58 25.83 117.72 25.83 99.36"/><polygon class="cls-2" points="88.26 111.5 103.29 102.81 77.48 88.33 77.48 117.72 88.26 111.5"/><polygon class="cls-3" points="88.26 111.5 77.48 117.73 77.47 117.73 77.48 117.72 77.48 88.33 77.48 29.35 51.66 44.26 51.66 58.77 51.66 73.85 51.66 88.46 51.66 103.01 51.66 103.01 51.66 132.73 51.66 158.46 77.48 143.55 103.31 128.64 103.31 102.81 88.26 111.5"/><polygon class="cls-4" points="25.83 29.35 0 14.44 0 40.27 16.11 49.56 25.83 55.18 25.83 73.54 17.93 68.97 0 58.63 0 84.45 16.11 93.75 25.83 99.36 25.83 117.72 3.06 104.58 0 102.81 0 128.64 25.83 143.55 51.66 158.46 51.66 132.73 51.66 103.01 51.66 103.01 51.66 88.46 51.66 73.85 51.66 58.77 51.66 44.26 25.83 29.35"/><polygon class="cls-2" points="25.83 0 0 14.43 51.66 44.26 77.48 29.35 25.83 0"/></g></g></svg>