<svg id="Layer_1" data-name="Layer 1" xmlns="http://www.w3.org/2000/svg" viewBox="0 0 300 300"><defs><style>.cls-1{fill:#fff;}</style></defs><title>freecodecamp-logo</title><g id="Page-1"><g id="Group"><path id="path29" class="cls-1" d="M0,146.3c0-29.5,10.8-56,32.6-79.4C40.5,58.5,47,54.2,51.4,54.2a8.43,8.43,0,0,1,4.4,1.4,5.49,5.49,0,0,1,2,3.7c0,2.3-2.9,5.6-8.4,10.9-22.8,20.7-34.2,46-34.2,76.7,0,33.9,12,61.1,35.2,82.2,4.9,4.2,6.9,7.5,6.9,10.3,0,1.4-1,2.8-2,4.2a7.66,7.66,0,0,1-4.4,1.9c-5.4,0-12.9-6.1-22.8-17.9C9,205,0,178.3,0,146.3Z"/><path id="path31" class="cls-1" d="M300,153.7c0,29.5-10.8,56-32.6,79.4-7.9,8.4-14.4,12.7-18.8,12.7a8.43,8.43,0,0,1-4.4-1.4,6.66,6.66,0,0,1-2-4.2c0-2.3,2.9-5.6,8.4-10.3,22.8-20.7,34.2-46,34.2-76.7,0-33.9-12-61.1-35.2-82.2-4.9-4.2-6.9-7.5-6.9-10.3,0-1.4,1-2.8,2-4.2a7.66,7.66,0,0,1,4.4-1.9c4.9,0,12.9,6.1,22.8,17.9C290,95.1,300,121.9,300,153.7Z"/><g id="g33"><path id="path37" class="cls-1" d="M218.78,239.43H81.48c-4.9,0-8.6-3.5-8.6-8.2s3.7-8.2,8.6-8.2h137.3c4.9,0,8.6,3.5,8.6,8.2-1.2,4.7-3.7,8.2-8.6,8.2Z"/></g><path id="Shape" class="cls-1" d="M120.9,70.1s11.5,7.5,11.5,21.1c0,23.5-33.7,49.3-33.7,73.7,0,26.3,21.3,43.2,41.6,48.4,2.9.5,3.9-2.3.5-3.3-8.4-1.9-17.4-12.3-17.4-28.1,0-15.1,15.4-20.7,21.3-27.7,6.4-7.5,4.9-16.9,1-19.7s-1-6.5,5.4-1.9c6.4,4.2,12,12.7,9.8,20.2-2.5,9.8,1,15.5,6.4,16.5s11.5-1.9,10.8-6.5-3.4-9.8-2-9.8c3.9,0,12,8.9,12,23.5s-12.4,24.4-16.4,28.1c-2.5,2.3.5,5.1,3.9,3.7a36.55,36.55,0,0,0,6.9-3.7c9.8-6.5,25.2-20.2,25.2-45.1,0-26.3-10.3-38.1-21.3-47.9-10.8-9.8-13.4-7.5-10.3-2.3,8.8,14.6,3.4,19.7-2.9,19.7-7.9,0-7.9-16.5-11.5-29.1-6.4-28.1-33.7-33-38.6-33.4-3.7-1.6-8.3,1.2-2.2,3.6Z"/></g></g></svg>