<svg id="Layer_1" data-name="Layer 1" xmlns="http://www.w3.org/2000/svg" viewBox="0 0 72 72"><defs><style>.cls-1{fill:#fff;}</style></defs><title>Artboard 1</title><path class="cls-1" d="M66.68,0H5.32A5.24,5.24,0,0,0,0,5.16V66.84A5.24,5.24,0,0,0,5.32,72H66.68A5.24,5.24,0,0,0,72,66.84V5.16A5.24,5.24,0,0,0,66.68,0ZM21.79,60.63H11.37V28.42H21.79ZM16.23,23.68h-.07c-3.64,0-6-2.5-6-5.63s2.42-5.64,6.13-5.64,6,2.44,6.06,5.64S20,23.68,16.23,23.68Zm44.4,36.95H50.21V43.4c0-4.33-1.56-7.28-5.47-7.28A5.91,5.91,0,0,0,39.2,40a7.28,7.28,0,0,0-.36,2.61v18H28s.14-29.19,0-32.21h10.8v4.21a10.5,10.5,0,0,1,9.57-5.39c7,0,12.22,4.66,12.22,14.68Z"/></svg>